<svg width="442" height="408" viewBox="0 0 442 408" fill="none" xmlns="http://www.w3.org/2000/svg">
<g clip-path="url(#clip0_412_144)">
<path d="M357.888 0H76.6903L0 141.093H73.3918L112.974 65.6035H323.254L357.888 0Z" fill="black"/>
<path d="M442 145.586L366.134 5.3916L329.851 70.9951L371.082 145.586L266.354 337.004L301.812 403.507L442 145.586Z" fill="black"/>
<path d="M141.011 408L0 150.978H73.3918L177.295 341.498H258.933L295.216 408H141.011Z" fill="black"/>
<path d="M321.256 73.9375L358.922 143.822L346.64 165.938C346.64 165.938 343.364 156.207 338.452 150.014C333.539 143.822 321.256 139.399 321.256 139.399H160.767C151.76 122.591 148.53 119.053 142.753 103.13C136.976 87.2067 163.223 75.7067 163.223 75.7067L321.256 73.9375Z" fill="black"/>
<path d="M260.424 330.333H181.975L170.414 307.832C170.414 307.832 180.27 309.351 187.755 307.832C195.24 306.313 204.271 298.831 204.271 298.831L286.849 148.523C304.979 148.519 310.438 147.2 326.221 149.818C342.004 152.436 338.038 183.268 338.038 183.268L260.424 330.333Z" fill="black"/>
<path d="M80.8281 143.878L119.215 74.7178H145.64C145.64 74.7178 138.957 80.3441 136.556 88.2186C134.155 96.0931 134.079 106.22 134.079 106.22L215.005 259.229C206.238 276.525 203.687 280.178 193.95 293.968C184.212 307.757 161.373 289.059 161.373 289.059L80.8281 143.878Z" fill="black"/>
</g>
<defs>
<clipPath id="clip0_412_144">
<rect width="442" height="408" fill="white"/>
</clipPath>
</defs>
</svg>
