<svg width="21" height="15" viewBox="0 0 21 15" fill="none" xmlns="http://www.w3.org/2000/svg">
<path d="M15.2741 4.29734V3.83317C15.2741 1.74317 12.1216 0.166504 7.94076 0.166504C3.75992 0.166504 0.607422 1.74317 0.607422 3.83317V7.1665C0.607422 8.90734 2.79492 10.2907 5.94076 10.7048V11.1665C5.94076 13.2565 9.09326 14.8332 13.2741 14.8332C17.4549 14.8332 20.6074 13.2565 20.6074 11.1665V7.83317C20.6074 6.10817 18.4891 4.72317 15.2741 4.29734ZM4.60742 9.07234C2.97492 8.6165 1.94076 7.86567 1.94076 7.1665V5.994C2.62076 6.47567 3.53159 6.864 4.60742 7.12484V9.07234ZM11.2741 7.12484C12.3499 6.864 13.2608 6.47567 13.9408 5.994V7.1665C13.9408 7.86567 12.9066 8.6165 11.2741 9.07234V7.12484ZM9.94076 13.0723C8.30826 12.6165 7.27409 11.8657 7.27409 11.1665V10.819C7.49326 10.8273 7.71492 10.8332 7.94076 10.8332C8.26409 10.8332 8.57992 10.8223 8.88992 10.804C9.2343 10.9273 9.58509 11.0319 9.94076 11.1173V13.0723ZM9.94076 9.354C9.27859 9.45183 8.6101 9.50057 7.94076 9.49984C7.27141 9.50057 6.60292 9.45183 5.94076 9.354V7.3715C6.6039 7.45791 7.272 7.50078 7.94076 7.49984C8.60951 7.50078 9.27761 7.45791 9.94076 7.3715V9.354ZM15.2741 13.354C13.9478 13.5484 12.6003 13.5484 11.2741 13.354V11.3665C11.937 11.4556 12.6052 11.5002 13.2741 11.4998C13.9428 11.5008 14.6109 11.4579 15.2741 11.3715V13.354ZM19.2741 11.1665C19.2741 11.8657 18.2399 12.6165 16.6074 13.0723V11.1248C17.6833 10.864 18.5941 10.4757 19.2741 9.994V11.1665Z" fill="#313743"/>
</svg>
