<svg width="19" height="15" viewBox="0 0 19 15" fill="none" xmlns="http://www.w3.org/2000/svg">
<path d="M18.6741 7.63442L12.1536 14.1549C12.0624 14.2462 11.9462 14.3084 11.8196 14.3336C11.6931 14.3588 11.5619 14.3459 11.4427 14.2965C11.3235 14.2471 11.2216 14.1635 11.1499 14.0561C11.0783 13.9488 11.0401 13.8227 11.0402 13.6936V10.4521C6.38619 10.7162 3.1952 13.7344 2.29945 14.6904C2.15879 14.8407 1.97434 14.9427 1.77235 14.982C1.57035 15.0213 1.3611 14.9959 1.17438 14.9094C0.987655 14.8229 0.832971 14.6797 0.732341 14.5002C0.631711 14.3207 0.590262 14.114 0.613893 13.9096C0.916282 11.2802 2.3565 8.75106 4.66966 6.78838C6.59077 5.15825 8.92593 4.12393 11.0402 3.94299V0.652566C11.0401 0.523528 11.0783 0.39736 11.1499 0.290036C11.2216 0.182713 11.3235 0.0990581 11.4427 0.0496636C11.5619 0.000268968 11.6931 -0.0126447 11.8196 0.0125574C11.9462 0.0377595 12.0624 0.0999441 12.1536 0.191239L18.6741 6.71176C18.7347 6.77232 18.7828 6.84423 18.8156 6.92339C18.8485 7.00255 18.8654 7.0874 18.8654 7.17309C18.8654 7.25878 18.8485 7.34363 18.8156 7.42279C18.7828 7.50195 18.7347 7.57386 18.6741 7.63442Z" fill="#313743"/>
</svg>
